<svg width="372" height="671" viewBox="0 0 372 671" fill="none" xmlns="http://www.w3.org/2000/svg">
<path d="M183.478 2C204.713 2 225.08 10.4349 240.097 25.4495C255.114 40.4641 263.552 60.8287 263.556 82.0644V293.952H103.399V82.0644C103.403 60.8287 111.842 40.4641 126.859 25.4495C141.876 10.4349 162.242 2 183.478 2Z" fill="url(#paint0_linear_160_131)" stroke="black" stroke-width="2.091" stroke-miterlimit="10" stroke-linecap="round"/>
<path d="M183.479 25.4609C190.591 25.4591 197.633 26.8585 204.204 29.5791C210.774 32.2998 216.744 36.2884 221.773 41.317C226.802 46.3457 230.79 52.3158 233.511 58.8864C236.232 65.457 237.631 72.4993 237.629 79.6109V293.952H129.322V79.6109C129.322 72.4992 130.723 65.4572 133.445 58.887C136.167 52.3168 140.156 46.347 145.185 41.3186C150.214 36.2902 156.184 32.3017 162.755 29.5809C169.325 26.86 176.368 25.46 183.479 25.4609Z" fill="url(#paint1_linear_160_131)" stroke="black" stroke-width="2.091" stroke-miterlimit="10" stroke-linecap="round"/>
<path d="M183.478 53.1528C186.962 53.1519 190.412 53.8375 193.631 55.1703C196.85 56.5031 199.775 58.4571 202.238 60.9206C204.702 63.3841 206.656 66.3089 207.988 69.5278C209.321 72.7467 210.007 76.1967 210.006 79.6807V293.952H156.95V79.6807C156.952 72.6456 159.748 65.8992 164.722 60.9247C169.697 55.9502 176.443 53.1547 183.478 53.1528Z" fill="url(#paint2_linear_160_131)" stroke="black" stroke-width="2.091" stroke-miterlimit="10" stroke-linecap="round"/>
<path d="M2 669.545C18.9046 606.945 35.8045 544.35 52.6998 481.759C69.5951 419.169 86.495 356.566 103.4 293.953H263.556L317.086 481.355L370.615 668.764L186.308 669.169L2 669.545Z" fill="url(#paint3_linear_160_131)" stroke="black" stroke-width="2.091" stroke-miterlimit="10" stroke-linecap="round"/>
<path d="M274.534 249.49L248.912 253.038L223.291 256.593C218.582 257.242 213.808 255.995 210.018 253.127C206.228 250.258 203.731 246.002 203.078 241.294C202.756 238.959 202.898 236.585 203.495 234.306C204.092 232.026 205.132 229.887 206.556 228.01C207.98 226.133 209.76 224.555 211.794 223.366C213.829 222.177 216.077 221.4 218.412 221.081L244.033 217.533L269.648 213.978C274.357 213.329 279.131 214.576 282.921 217.444C286.711 220.313 289.207 224.569 289.861 229.277C290.51 233.986 289.264 238.76 286.395 242.55C283.526 246.34 279.27 248.837 274.562 249.49H274.534Z" fill="#040400" stroke="#040400" stroke-width="2.091" stroke-miterlimit="10"/>
<path d="M207.762 358.593L188.65 484.52L169.531 610.447H319.839L304.178 543.632L288.516 476.818C288.516 476.818 295.674 463.275 298.274 441.731C300.874 420.187 298.867 390.627 280.577 358.593" fill="#F6C34C"/>
<path d="M207.762 358.593L188.65 484.52L169.531 610.447H319.839L304.178 543.632L288.516 476.818C288.516 476.818 295.674 463.275 298.274 441.731C300.874 420.187 298.867 390.627 280.577 358.593" stroke="#070707" stroke-width="2.091" stroke-miterlimit="10" stroke-linecap="round"/>
<path d="M272.812 400.594C269.185 404.224 267.046 409.079 266.816 414.205C266.585 419.332 268.28 424.359 271.568 428.299C274.855 432.24 279.497 434.809 284.581 435.501C289.666 436.194 294.826 434.96 299.047 432.042C299.573 420.033 298.426 408.008 295.639 396.314C291.846 394.645 287.637 394.16 283.564 394.924C279.491 395.688 275.743 397.664 272.812 400.594Z" fill="#DBCAF4" stroke="black" stroke-width="2.091" stroke-miterlimit="10" stroke-linecap="round"/>
<path d="M222.258 381.196C227.712 381.196 232.942 379.03 236.798 375.174C240.654 371.318 242.82 366.088 242.82 360.635C242.82 359.953 242.786 359.271 242.715 358.593H207.761L205.621 372.714C206.251 373.589 206.95 374.412 207.712 375.174C209.62 377.088 211.887 378.605 214.384 379.638C216.88 380.672 219.557 381.201 222.258 381.196Z" fill="#DBCAF4" stroke="black" stroke-width="2.091" stroke-miterlimit="10" stroke-linecap="round"/>
<path d="M211.198 453.67C213.953 450.915 215.869 447.433 216.721 443.631C217.574 439.829 217.329 435.862 216.014 432.194C214.699 428.526 212.369 425.307 209.295 422.912C206.221 420.517 202.53 419.045 198.652 418.667L192.49 459.267C195.827 459.959 199.284 459.812 202.551 458.839C205.817 457.866 208.79 456.097 211.205 453.691L211.198 453.67Z" fill="#DBCAF4" stroke="black" stroke-width="2.091" stroke-miterlimit="10" stroke-linecap="round"/>
<path d="M240.13 488.416C235.373 488.416 230.764 490.065 227.086 493.083C223.409 496.101 220.892 500.301 219.964 504.966C219.036 509.632 219.755 514.475 221.997 518.67C224.24 522.865 227.868 526.153 232.263 527.974C236.658 529.794 241.548 530.034 246.1 528.653C250.652 527.272 254.585 524.355 257.227 520.4C259.87 516.445 261.06 511.695 260.593 506.961C260.127 502.227 258.034 497.801 254.67 494.438C252.762 492.526 250.496 491.01 248.001 489.976C245.506 488.943 242.831 488.412 240.13 488.416Z" fill="#DBCAF4" stroke="black" stroke-width="2.091" stroke-miterlimit="10" stroke-linecap="round"/>
<path d="M294.538 551.146C291.357 554.324 289.305 558.458 288.697 562.914C288.09 567.37 288.96 571.903 291.174 575.817C293.389 579.731 296.826 582.811 300.958 584.585C305.091 586.36 309.691 586.73 314.054 585.64L304.666 545.604C300.829 546.445 297.315 548.368 294.538 551.146Z" fill="#DBCAF4" stroke="black" stroke-width="2.091" stroke-miterlimit="10" stroke-linecap="round"/>
<path d="M231.759 590.129C228.532 586.885 224.316 584.81 219.778 584.233C215.239 583.655 210.638 584.607 206.701 586.939C202.765 589.27 199.719 592.848 198.045 597.106C196.371 601.364 196.165 606.058 197.459 610.447H236.93C237.477 608.569 237.756 606.624 237.76 604.668C237.766 601.969 237.239 599.296 236.209 596.801C235.179 594.305 233.667 592.038 231.759 590.129Z" fill="#DBCAF4" stroke="black" stroke-width="2.091" stroke-miterlimit="10" stroke-linecap="round"/>
<path d="M207.762 358.592H280.563L282.459 355.372L284.348 352.152H314.159C315.903 352.148 317.64 351.914 319.323 351.455C321.673 350.818 323.865 349.703 325.763 348.18C327.662 346.656 329.226 344.758 330.357 342.603C332.099 339.383 333.277 335.075 333.277 329.318C333.283 321.158 332.133 313.039 329.862 305.202C327.597 297.362 324.217 289.888 319.825 283.009C311.803 270.463 302.087 258.614 290.551 250.09C279.016 241.566 265.71 236.255 250.474 236.742C241.102 237.046 231.808 238.56 222.824 241.245C215.575 243.42 210.584 245.789 208.647 246.94C199.162 252.579 191.054 260.263 184.914 269.432C181.264 274.806 178.3 280.615 176.09 286.724C181.364 298.703 186.645 310.682 191.933 322.662C197.221 334.641 202.497 346.617 207.762 358.592Z" fill="#ECE7E1" stroke="black" stroke-width="2.091" stroke-miterlimit="10" stroke-linecap="round"/>
<path d="M256.425 214.543C255.04 208.344 251.501 202.836 246.437 199C241.719 195.515 235.982 194.051 230.309 195.383C224.635 196.714 220.16 200.596 217.477 205.838C214.65 211.525 213.936 218.032 215.463 224.197C215.574 224.684 215.7 225.158 215.839 225.632C215.978 226.106 216.132 226.573 216.285 227.026L214.661 228.692L213.037 230.351L215.825 231.257L218.613 232.17C220.978 236.246 224.461 239.56 228.65 241.719C232.618 243.76 237.179 244.338 241.53 243.35C247.19 242.019 251.679 238.13 254.362 232.895C257.204 227.216 257.936 220.712 256.425 214.543Z" fill="#F2B3C1" stroke="black" stroke-width="2.091" stroke-miterlimit="10" stroke-linecap="round"/>
<path d="M224.761 222.907C224.83 223.234 224.767 223.574 224.587 223.855C224.402 224.135 224.114 224.333 223.786 224.405C223.622 224.44 223.454 224.442 223.29 224.411C223.126 224.379 222.97 224.316 222.831 224.224C222.691 224.135 222.572 224.019 222.478 223.882C222.385 223.746 222.32 223.592 222.287 223.43C222.253 223.267 222.251 223.1 222.281 222.936C222.312 222.773 222.374 222.617 222.465 222.478C222.555 222.339 222.672 222.219 222.809 222.125C222.946 222.031 223.1 221.965 223.263 221.931C223.425 221.897 223.593 221.895 223.756 221.925C223.919 221.956 224.075 222.018 224.214 222.109C224.353 222.199 224.473 222.316 224.567 222.453C224.661 222.59 224.727 222.744 224.761 222.907Z" fill="#040400"/>
<path d="M230.045 229.256C229.996 229.736 229.876 230.206 229.689 230.65C229.337 231.506 228.734 232.235 227.96 232.741C227.349 233.136 226.65 233.375 225.925 233.438C225.513 233.491 225.096 233.491 224.685 233.438" stroke="black" stroke-width="2.091" stroke-miterlimit="10" stroke-linecap="round"/>
<path d="M219.652 217.066L223.521 216.746L227.396 216.418" stroke="black" stroke-width="2.091" stroke-miterlimit="10" stroke-linecap="round"/>
<path d="M237.481 222.558C237.587 223.053 237.595 223.564 237.503 224.062C237.41 224.559 237.221 225.034 236.944 225.458C236.668 225.883 236.31 226.25 235.891 226.537C235.473 226.824 235.002 227.026 234.505 227.13C234.009 227.235 233.497 227.241 232.998 227.148C232.499 227.055 232.023 226.864 231.598 226.587C230.959 226.17 230.458 225.573 230.158 224.871C229.857 224.169 229.772 223.394 229.912 222.643C230.053 221.893 230.412 221.201 230.945 220.655C231.479 220.109 232.162 219.733 232.909 219.575C233.911 219.366 234.956 219.561 235.815 220.119C236.241 220.394 236.608 220.752 236.894 221.171C237.18 221.589 237.38 222.061 237.481 222.558Z" fill="#FF6406" stroke="#070707" stroke-width="2.091" stroke-miterlimit="10" stroke-linecap="round"/>
<path d="M310.234 623.738H179.059C177.732 623.738 176.418 623.476 175.192 622.968C173.966 622.46 172.853 621.716 171.915 620.777C170.977 619.839 170.233 618.725 169.726 617.498C169.219 616.272 168.958 614.958 168.959 613.631C168.958 612.305 169.219 610.991 169.726 609.765C170.233 608.54 170.977 607.426 171.915 606.488C172.853 605.55 173.967 604.806 175.193 604.299C176.418 603.791 177.732 603.531 179.059 603.532H310.234C311.56 603.531 312.874 603.791 314.1 604.299C315.326 604.806 316.439 605.55 317.377 606.488C318.315 607.426 319.059 608.54 319.567 609.765C320.074 610.991 320.334 612.305 320.333 613.631C320.334 614.958 320.074 616.272 319.567 617.498C319.06 618.725 318.316 619.839 317.378 620.777C316.44 621.716 315.326 622.46 314.1 622.968C312.875 623.476 311.561 623.738 310.234 623.738Z" fill="#FC762B" stroke="#070707" stroke-width="2.091" stroke-miterlimit="10" stroke-linecap="round"/>
<path d="M219.332 202.806C223.089 207.992 226.713 211.358 230.038 213.526C232.725 215.333 235.771 216.541 238.967 217.067C242.298 217.582 246.724 217.436 250.314 217.164C253.903 216.892 256.663 216.467 256.663 216.467C256.663 216.467 256.552 215.917 256.392 215.178C256.231 214.439 256.029 213.526 255.841 212.801C255.701 212.271 255.513 211.644 255.269 210.933C255.025 210.222 254.712 209.441 254.321 208.598C254.716 208.355 255.143 208.17 255.59 208.047C256.424 207.81 257.307 207.81 258.141 208.047C258.872 208.251 259.543 208.626 260.1 209.142C260.418 209.427 260.694 209.756 260.922 210.117C258.831 201.802 252.321 196.442 244.8 194.512C237.28 192.581 228.714 194.073 222.434 199.46C221.783 200.015 221.17 200.614 220.601 201.252C220.085 201.816 219.667 202.353 219.332 202.806Z" fill="#040400" stroke="#040400" stroke-width="2.091" stroke-miterlimit="10"/>
<path d="M302.824 603.532L305.389 636.179L307.947 668.813H290.16C289.751 664.008 289.342 659.203 288.933 654.399C288.524 649.594 288.115 644.79 287.706 639.985C271.259 653.844 251.389 663.028 230.176 666.575C221.889 667.979 213.485 668.568 205.084 668.332C211.353 664.849 217.238 660.716 222.641 656.002C230.567 649.099 237.306 640.943 242.59 631.858C245.415 626.984 247.801 621.869 249.72 616.573C251.261 612.324 252.505 607.974 253.442 603.553H302.873L302.824 603.532Z" fill="#84A1E5" stroke="#070707" stroke-width="2.091" stroke-miterlimit="10" stroke-linecap="round"/>
<path d="M267.098 270.603C266.911 271.089 266.766 271.59 266.666 272.101C266.561 272.615 266.512 273.138 266.52 273.663C266.529 274.109 266.6 274.552 266.729 274.98C266.855 275.401 267.075 275.789 267.37 276.116C267.802 276.571 268.373 276.87 268.994 276.966C269.623 277.072 270.268 277.014 270.869 276.799C272.292 276.22 273.466 275.159 274.187 273.802C274.928 272.451 275.583 271.054 276.145 269.62L278.382 264.518C279.128 262.817 279.881 261.123 280.655 259.437C281.413 257.422 282.312 255.464 283.345 253.575C284.6 251.533 286.231 250.09 288.287 251.156C288.683 251.375 289.009 251.701 289.228 252.097C289.392 252.371 289.516 252.667 289.597 252.976C289.886 252.307 290.253 251.675 290.691 251.094C291.388 250.167 292.42 249.274 293.689 249.414C294.334 249.489 294.933 249.787 295.382 250.257C295.832 250.726 296.112 251.332 296.177 251.979C296.207 252.382 296.181 252.788 296.1 253.185C295.994 253.718 295.826 254.238 295.598 254.732C295.689 254.516 296.051 254.607 296.421 254.732C296.716 254.867 297.002 255.021 297.278 255.192C297.627 255.411 297.925 255.704 298.149 256.049C298.373 256.393 298.529 256.776 298.609 257.178C298.689 257.627 298.703 258.085 298.651 258.538C298.601 258.993 298.513 259.443 298.386 259.883C298.17 260.677 297.933 261.458 297.689 262.246C297.445 263.033 297.222 263.821 296.992 264.622C297.304 264.845 297.595 265.095 297.864 265.368C298.217 265.733 298.523 266.141 298.777 266.581C299.448 267.85 299.704 269.299 299.508 270.721C299.365 271.883 299.087 273.025 298.679 274.123C296.594 280.084 294.03 285.867 291.012 291.415C289.867 293.556 288.608 295.633 287.241 297.639C285.366 300.26 283.157 303.215 280.578 306.463C277.999 309.711 275.058 313.175 271.733 316.821L252.628 301.48L243.979 294.51C243.979 294.51 244.202 293.52 244.466 292.419C244.731 291.317 245.031 290.063 245.163 289.554C245.63 287.937 246.07 286.362 246.557 284.801C247.062 283.22 247.68 281.678 248.404 280.186C250.149 276.768 252.229 273.532 254.615 270.526C256.95 267.494 259.494 264.595 261.919 261.66C262.985 260.223 264.164 258.873 265.446 257.625C266.84 256.419 268.443 255.673 270.325 256.328C270.784 256.485 271.198 256.752 271.529 257.107C271.86 257.463 272.097 257.894 272.221 258.363C272.461 259.318 272.425 260.321 272.116 261.256C271.934 261.819 271.7 262.365 271.419 262.887C271.148 263.417 270.855 263.932 270.562 264.441C270.005 265.424 269.342 266.414 268.715 267.438C268.078 268.44 267.536 269.499 267.098 270.603Z" fill="#F2B3C1" stroke="black" stroke-width="2.091" stroke-miterlimit="10" stroke-linecap="round"/>
<path d="M271.76 316.87L256.83 304.749L241.893 292.621L228.65 303.906L215.407 315.183C215.895 314.772 212.619 311.036 208.988 307.244C205.356 303.453 201.509 299.577 200.84 298.957C184.37 282.989 163.899 275.21 142.787 274.325C121.675 273.44 100.019 279.462 81.1998 291.102L84.1829 273.837L87.173 256.572L67.441 255.248L47.7159 253.924C43.3666 274.743 40.5507 287.77 38.5364 296.657C36.5221 305.544 35.3232 310.283 34.215 314.521C34.1732 314.674 34.0547 315.127 33.8944 315.803C33.734 316.48 33.525 317.379 33.3089 318.417C32.0543 324.46 30.967 329.688 30.7439 334.351C30.5209 339.014 31.1621 343.084 33.3647 346.827C35.0063 349.572 37.1651 351.972 39.7213 353.895C42.2598 355.834 45.1258 357.302 48.1829 358.23C51.6725 359.219 55.3595 359.284 58.8818 358.418C62.3668 357.672 65.7473 356.327 69.2741 355.212C70.6681 354.759 71.5533 354.48 73.944 353.671C76.3347 352.863 80.2658 351.539 87.8143 348.967L92.5609 347.35L96.1295 346.144C97.0588 352.988 97.9742 359.831 98.8757 366.671C99.7771 373.51 100.693 380.35 101.622 387.19L144.899 387.072L188.182 386.946C189.023 382.23 189.869 377.509 190.719 372.783C191.57 368.058 192.422 363.327 193.277 358.592C195.755 360.959 198.635 362.866 201.781 364.224C203.645 365.021 205.611 365.558 207.622 365.82C213.198 366.517 218.474 364.886 223.123 362.398C227.772 359.91 231.808 356.599 234.972 354.034C236.289 352.968 237.397 351.943 238.269 351.169C239.14 350.396 239.767 349.726 240.123 349.364C245.894 343.537 251.853 337.445 257.353 331.793C262.852 326.14 267.856 320.933 271.76 316.87Z" fill="#84A1E5" stroke="#070707" stroke-width="2.091" stroke-miterlimit="10" stroke-linecap="round"/>
<path d="M289.596 252.998C288.899 255.214 288.202 257.521 287.316 259.898C286.431 262.275 285.49 264.728 284.41 267.244C283.783 268.694 283.148 270.1 282.507 271.461C281.866 272.82 281.211 274.138 280.562 275.413" stroke="black" stroke-width="2.091" stroke-miterlimit="10" stroke-linecap="round"/>
<path d="M295.598 254.753C294.901 256.844 294.141 258.998 293.284 261.229C292.427 263.459 291.472 265.766 290.419 268.122C289.629 269.888 288.83 271.586 288.022 273.217C287.213 274.841 286.398 276.409 285.582 277.908" stroke="black" stroke-width="2.091" stroke-miterlimit="10" stroke-linecap="round"/>
<path d="M297.012 264.679C297.012 264.679 295.827 267.787 294.37 271.321C292.913 274.855 291.192 278.821 290.111 280.522" stroke="black" stroke-width="2.091" stroke-miterlimit="10" stroke-linecap="round"/>
<path d="M214.236 313.154L216.083 315.615C216.704 316.43 217.317 317.253 217.937 318.075" stroke="black" stroke-width="2.091" stroke-miterlimit="10" stroke-linecap="round"/>
<path d="M172.542 338.958C174.173 340.668 175.867 342.394 177.623 344.137C179.38 345.879 181.194 347.638 183.067 349.413C184.795 351.051 186.51 352.626 188.211 354.16C189.911 355.693 191.591 357.164 193.257 358.592" stroke="black" stroke-width="2.091" stroke-miterlimit="10" stroke-linecap="round"/>
<path d="M68.5146 298.72C69.9086 297.953 71.3026 297.159 72.6966 296.336C74.0906 295.514 75.5125 294.659 76.9623 293.771C77.6593 293.339 78.3563 292.9 79.0533 292.468L81.0606 291.165" stroke="black" stroke-width="2.091" stroke-miterlimit="10" stroke-linecap="round"/>
<path d="M267.857 603.532L270.227 636.158L272.604 668.792H256.81L255.088 654.524L253.367 640.257C248.855 643.585 244.152 646.646 239.28 649.422C225.541 657.223 210.597 662.676 195.063 665.558C188.388 666.8 181.633 667.567 174.85 667.851C178.113 665.753 181.241 663.453 184.217 660.964C187.782 657.976 191.107 654.713 194.163 651.206C201.158 643.173 206.686 633.972 210.494 624.023C213.119 617.225 214.989 610.16 216.07 602.953L241.992 603.225L267.857 603.532Z" fill="#84A1E5" stroke="#070707" stroke-width="2.091" stroke-miterlimit="10" stroke-linecap="round"/>
<path d="M129.85 265.766C128.132 260.096 128.183 254.037 129.996 248.397C131.85 242.667 135.572 237.712 141.385 235.649C146.843 233.711 152.697 234.54 157.751 237.454C163.186 240.692 167.294 245.756 169.342 251.742C169.509 252.209 169.662 252.683 169.802 253.136C169.941 253.589 170.067 254.077 170.178 254.53L172.436 255.046L174.695 255.562L172.827 257.834L170.973 260.148C171.174 264.301 170.209 268.428 168.185 272.06C166.268 275.541 163.326 278.347 159.758 280.096C155.716 281.977 151.139 282.369 146.836 281.205C144.26 280.554 141.799 279.513 139.538 278.117C135.004 275.215 131.588 270.861 129.85 265.766Z" fill="#F2B3C1" stroke="black" stroke-width="2.091" stroke-miterlimit="10" stroke-linecap="round"/>
<path d="M132.29 270.951C131.956 270.401 131.593 269.794 131.294 269.146C130.994 268.498 130.639 267.801 130.332 267.055C129.798 265.763 129.362 264.433 129.028 263.075C128.753 261.952 128.543 260.814 128.401 259.667C127.732 259.762 127.078 259.944 126.457 260.211C125.607 260.566 124.88 261.162 124.366 261.925C123.425 263.403 123.522 265.41 124.303 267.236C124.659 268.137 125.198 268.953 125.887 269.634C126.576 270.314 127.399 270.844 128.304 271.188C129.045 271.417 129.827 271.484 130.597 271.384C131.177 271.309 131.745 271.164 132.29 270.951Z" fill="#F2B3C1" stroke="black" stroke-width="2.091" stroke-miterlimit="10" stroke-linecap="round"/>
<path d="M160.866 255.701C160.988 256.011 161.225 256.261 161.529 256.398C161.756 256.499 162.008 256.531 162.253 256.489C162.498 256.447 162.725 256.334 162.906 256.163C163.087 255.993 163.214 255.772 163.27 255.53C163.326 255.288 163.31 255.035 163.222 254.802C163.102 254.491 162.864 254.241 162.56 254.105C162.249 253.979 161.902 253.979 161.591 254.105C161.435 254.169 161.292 254.263 161.173 254.383C161.053 254.503 160.958 254.645 160.894 254.802C160.775 255.088 160.765 255.408 160.866 255.701Z" fill="#040400"/>
<path d="M162.024 248.097L158.581 249.874L155.145 251.644" stroke="black" stroke-width="2.091" stroke-miterlimit="10" stroke-linecap="round"/>
<path d="M239.92 635.978C241.103 634.446 242.19 632.842 243.175 631.176C244.164 629.51 244.984 627.749 245.622 625.92C246.177 624.073 246.426 622.147 246.36 620.219C246.27 618.058 245.663 616.037 244.011 615.563C241.349 614.74 239.132 616.957 237.411 619.745C235.965 622.334 234.725 625.032 233.703 627.816C232.663 630.322 231.833 632.91 231.222 635.553C230.615 638.198 230.184 640.88 229.932 643.582C230.172 640.513 229.904 637.426 229.138 634.445C228.365 631.467 227.435 628.533 226.35 625.655C225.88 624.308 225.324 622.992 224.684 621.717C224.045 620.441 223.256 619.246 222.335 618.156C221.333 617.014 220.128 616.068 218.78 615.368C217.33 614.671 215.79 614.441 214.647 615.549C213.852 616.323 213.678 617.696 213.755 619.111C213.855 620.4 214.069 621.679 214.396 622.93C214.737 624.301 215.204 625.638 215.79 626.924C216.365 628.212 217.026 629.461 217.769 630.66C219.214 633.001 220.883 635.195 222.753 637.212C224.62 639.232 226.666 641.079 228.866 642.732C230.071 643.645 230.957 643.84 231.856 643.582C232.897 643.136 233.843 642.495 234.644 641.693C235.634 640.852 236.566 639.944 237.432 638.975C238.31 638.02 239.132 637.01 239.92 635.978Z" stroke="black" stroke-width="2.091" stroke-miterlimit="10" stroke-linecap="round"/>
<path d="M147.031 262.413C147.226 262.924 147.543 263.379 147.956 263.738C148.368 264.097 148.863 264.348 149.396 264.47C149.929 264.592 150.483 264.581 151.011 264.437C151.539 264.294 152.023 264.023 152.42 263.647C152.818 263.272 153.117 262.804 153.29 262.286C153.464 261.768 153.507 261.215 153.416 260.675C153.325 260.136 153.103 259.628 152.768 259.196C152.434 258.763 151.998 258.42 151.499 258.196C150.694 257.836 149.78 257.809 148.955 258.119C148.132 258.436 147.469 259.065 147.108 259.87C146.748 260.674 146.72 261.588 147.031 262.413Z" fill="#FF6406" stroke="#070707" stroke-width="2.091" stroke-miterlimit="10" stroke-linecap="round"/>
<path d="M63.6912 631.607C64.8767 630.075 65.9662 628.471 66.9532 626.805C67.9428 625.14 68.7602 623.379 69.3927 621.549C69.9513 619.702 70.2032 617.776 70.1385 615.848C70.0479 613.687 69.4415 611.666 67.7896 611.192C65.127 610.369 62.9106 612.586 61.189 615.374C59.7438 617.964 58.5018 620.663 57.474 623.445C56.4406 625.953 55.6131 628.54 54.9996 631.182C54.3898 633.826 53.959 636.509 53.7102 639.211C53.9486 636.144 53.6777 633.059 52.9086 630.08C52.1376 627.103 51.207 624.169 50.1206 621.291C49.6498 619.942 49.0934 618.625 48.4548 617.346C47.8141 616.071 47.0258 614.876 46.1059 613.785C45.1013 612.643 43.8937 611.698 42.5442 610.997C41.1014 610.3 39.5611 610.07 38.411 611.178C37.6165 611.952 37.4422 613.325 37.5259 614.74C37.6257 616.029 37.8403 617.307 38.1671 618.559C38.5053 619.931 38.9721 621.268 39.5611 622.553C40.1361 623.841 40.7975 625.089 41.5406 626.289C42.9825 628.631 44.6518 630.826 46.5241 632.841C48.3917 634.863 50.4375 636.713 52.6368 638.368C53.8426 639.274 54.7278 639.469 55.6269 639.211C56.6705 638.769 57.6176 638.128 58.4149 637.322C59.4049 636.483 60.3364 635.577 61.2029 634.611C62.0812 633.649 62.9385 632.638 63.6912 631.607Z" stroke="black" stroke-width="2.091" stroke-miterlimit="10" stroke-linecap="round"/>
<path d="M159.124 264.142C159.458 264.314 159.806 264.459 160.163 264.574C160.522 264.697 160.899 264.756 161.278 264.749C161.729 264.713 162.17 264.6 162.581 264.414C162.994 264.231 163.431 264.109 163.878 264.052C164.382 263.992 164.89 264.117 165.308 264.405C165.726 264.692 166.025 265.121 166.15 265.613C166.289 266.102 166.27 266.623 166.096 267.101C165.922 267.579 165.602 267.99 165.181 268.275C163.632 269.189 161.838 269.606 160.044 269.467C158.156 269.335 156.413 268.582 155.779 266.909C155.598 266.476 155.568 265.993 155.694 265.541C155.821 265.088 156.096 264.691 156.476 264.414C156.849 264.128 157.294 263.952 157.762 263.904C158.229 263.856 158.701 263.938 159.124 264.142Z" fill="#ECE7E1" stroke="black" stroke-width="2.091" stroke-miterlimit="10" stroke-linecap="round"/>
<path d="M128.401 259.667C131.639 260.125 134.94 259.81 138.033 258.747C142.996 256.977 148.23 252.579 149.352 242.082C152.74 243.94 156.676 244.537 160.463 243.769C163.822 243.023 166.589 241.12 167.997 238.499C169.059 236.428 169.449 234.077 169.112 231.773C168.837 229.367 167.625 227.166 165.739 225.647C164.625 224.845 163.354 224.288 162.01 224.013C160.666 223.738 159.278 223.751 157.939 224.051C154.836 224.695 152.095 226.497 150.272 229.09C144.211 228.607 138.128 229.73 132.638 232.345C127.759 234.791 124.198 238.444 122.581 242.849C122.1 244.177 121.793 245.561 121.668 246.968C121.488 249.182 121.676 251.41 122.225 253.562L123.306 257.744L124.379 261.926C124.683 261.506 125.042 261.129 125.445 260.803C126.275 260.103 127.316 259.703 128.401 259.667Z" fill="#040400" stroke="#040400" stroke-width="2.091" stroke-miterlimit="10"/>
<path d="M100.577 381.998C93.8577 420.825 87.1409 459.651 80.4265 498.473C73.7121 537.296 66.9976 576.122 60.2832 614.949H133.684C134.772 595.735 135.857 576.517 136.939 557.293C138.022 538.07 139.107 518.849 140.194 499.63L142.285 557.293L144.376 614.949H220.963L205.05 498.278L189.138 381.607L144.871 381.803L100.577 381.998Z" fill="#D87D61" stroke="black" stroke-width="2.091" stroke-miterlimit="10" stroke-linecap="round"/>
<path d="M113.939 381.942H112.029L96.632 502.85L82.3574 614.949H86.1631L100.375 503.331L115.841 381.928L113.939 381.942Z" fill="#F2B3C1" stroke="black" stroke-width="2.091" stroke-miterlimit="10" stroke-linecap="round"/>
<path d="M129.466 381.872L117.868 503.548L107.246 614.949H111.031L121.625 503.91L133.265 381.852H131.362L129.466 381.872Z" fill="#F2B3C1" stroke="black" stroke-width="2.091" stroke-miterlimit="10" stroke-linecap="round"/>
<path d="M154.246 381.774H152.357H150.461L158.595 504.725L165.879 614.949H169.663L162.366 504.446L154.246 381.774Z" fill="#F2B3C1" stroke="black" stroke-width="2.091" stroke-miterlimit="10" stroke-linecap="round"/>
<path d="M185.207 504.084L173.832 381.677H170.04L181.429 504.446L191.696 614.963H195.487L185.207 504.084Z" fill="#F2B3C1" stroke="black" stroke-width="2.091" stroke-miterlimit="10" stroke-linecap="round"/>
<path d="M134.457 617.716C134.457 621.292 130.275 624.526 123.501 626.868C116.726 629.209 107.372 630.652 97.0146 630.652C86.6572 630.652 77.3592 629.209 70.6053 626.868C63.8513 624.526 59.6484 621.292 59.6484 617.716C59.6484 614.14 63.8304 610.913 70.6053 608.571C77.3801 606.229 86.7129 604.814 97.0425 604.814C107.372 604.814 116.726 606.264 123.528 608.606C130.331 610.948 134.457 614.147 134.457 617.716Z" fill="#F2B3C1" stroke="black" stroke-width="2.091" stroke-miterlimit="10" stroke-linecap="round"/>
<path d="M221.904 617.716C221.904 621.292 217.541 624.526 210.473 626.868C203.405 629.21 193.654 630.652 182.872 630.652C172.089 630.652 162.338 629.21 155.271 626.868C148.203 624.526 143.84 621.292 143.84 617.716C143.84 614.14 148.21 610.913 155.271 608.571C162.331 606.23 172.096 604.78 182.872 604.78C193.647 604.78 203.412 606.23 210.473 608.571C217.534 610.913 221.904 614.147 221.904 617.716Z" fill="#F2B3C1" stroke="black" stroke-width="2.091" stroke-miterlimit="10" stroke-linecap="round"/>
<path d="M73.2606 607.777L69.455 623.55C68.1911 628.805 66.9249 634.063 65.6564 639.323C65.6564 639.323 57.2924 638.389 49.2629 641.609C41.2335 644.829 33.678 652.189 35.3229 668.792H123.354C123.86 668.794 124.36 668.692 124.825 668.492C125.276 668.304 125.685 668.029 126.031 667.684C126.443 667.261 126.746 666.744 126.916 666.178C127.028 665.796 127.103 665.404 127.139 665.007C127.264 663.725 127.404 657.612 127.543 648.091C127.682 638.57 127.794 625.655 127.892 610.746C126.672 610.195 125.173 609.561 123.431 608.92C121.688 608.278 119.695 607.63 117.485 607.045C113.931 606.099 110.303 605.455 106.64 605.121C103.364 604.807 100.367 604.759 97.6347 604.717C95.8574 604.717 93.6897 604.661 91.1248 604.779C88.1539 604.923 85.1937 605.237 82.2589 605.72C80.4188 606.027 78.7391 606.376 77.2336 606.731C75.728 607.087 74.3828 607.449 73.2606 607.777Z" fill="#ECE7E1" stroke="black" stroke-width="2.091" stroke-miterlimit="10" stroke-linecap="round"/>
<path d="M153.73 609.261C153.6 613.597 153.465 617.932 153.326 622.267L152.928 635.266C152.766 640.378 152.608 645.473 152.454 650.552C152.301 655.63 152.143 660.728 151.981 665.844C151.962 666.108 151.962 666.374 151.981 666.638C151.998 667.102 152.122 667.555 152.343 667.963C152.529 668.238 152.801 668.444 153.117 668.548C153.667 668.74 154.249 668.823 154.831 668.792H241.259C241.512 664.031 240.633 659.278 238.694 654.922C235.495 647.952 228.448 640.808 213.086 640.341C212.157 634.932 211.228 629.521 210.298 624.107L207.51 607.881C205.991 607.484 204.276 607.073 202.381 606.682C200.485 606.292 198.415 605.923 196.177 605.616C193.94 605.309 191.48 605.031 188.671 604.856C185.862 604.682 182.76 604.612 179.414 604.724C177.526 604.78 174.968 604.87 171.873 605.198C168.233 605.58 164.624 606.209 161.069 607.08C159.543 607.456 158.149 607.839 156.887 608.216C155.626 608.592 154.629 608.948 153.73 609.261Z" fill="#ECE7E1" stroke="black" stroke-width="2.091" stroke-miterlimit="10" stroke-linecap="round"/>
<path d="M63.4062 648.377L64.5284 643.854L65.6575 639.323" stroke="black" stroke-width="2.091" stroke-miterlimit="10" stroke-linecap="round"/>
<path d="M240.841 661.738L196.463 661.613L152.092 661.487C152.092 662.366 152.092 663.244 152.057 664.122V666.757C152.054 667.022 152.104 667.286 152.203 667.532C152.303 667.779 152.45 668.003 152.637 668.192C152.823 668.381 153.046 668.532 153.291 668.635C153.536 668.737 153.798 668.791 154.064 668.792H241.294C241.329 668.262 241.349 667.698 241.349 667.105C241.349 666.513 241.349 665.871 241.294 665.216C241.238 664.561 241.189 663.955 241.112 663.376C241.036 662.798 240.938 662.247 240.841 661.738Z" fill="#DBCAF4" stroke="black" stroke-width="2.091" stroke-miterlimit="10" stroke-linecap="round"/>
<path d="M35.177 661.78L81.179 661.745H127.181L127.097 663.662L127.021 665.579C126.969 665.899 126.873 666.211 126.735 666.506C126.486 667.021 126.121 667.472 125.669 667.823C125.242 668.179 124.742 668.436 124.205 668.576C123.895 668.655 123.577 668.694 123.257 668.694C109.268 668.736 94.2757 668.743 79.2832 668.743C64.2907 668.743 49.3122 668.743 35.3164 668.792C35.2537 668.29 35.2049 667.76 35.1631 667.21C35.1213 666.659 35.0934 666.087 35.0794 665.495C35.0655 664.903 35.0794 664.178 35.0794 663.557C35.0794 662.937 35.1352 662.345 35.177 661.78Z" fill="#DBCAF4" stroke="black" stroke-width="2.091" stroke-miterlimit="10" stroke-linecap="round"/>
<path d="M213.177 640.696L213.937 644.704L214.689 648.718" stroke="black" stroke-width="2.091" stroke-miterlimit="10" stroke-linecap="round"/>
<path d="M313.991 45.2143C313.991 44.6845 312.597 44.1966 310.346 43.8203C307.345 43.3786 304.318 43.1341 301.285 43.0884C301.239 40.0647 300.924 37.0511 300.344 34.0832C299.842 31.8179 299.194 30.4448 298.476 30.4448C297.758 30.4448 297.082 31.8388 296.615 34.0832C296.032 37.0508 295.715 40.0645 295.667 43.0884C292.634 43.1341 289.607 43.3786 286.606 43.8203C284.334 44.2036 282.961 44.6915 282.961 45.2143C282.961 45.737 284.355 46.2319 286.606 46.6083C289.608 47.0382 292.635 47.2711 295.667 47.3053C295.715 50.3292 296.032 53.3429 296.615 56.3105C297.11 58.5757 297.765 59.9488 298.476 59.9488C299.187 59.9488 299.87 58.5548 300.344 56.3105C300.931 53.3572 301.255 50.3576 301.313 47.3471C304.345 47.3129 307.372 47.0801 310.374 46.6501C312.618 46.2319 313.991 45.744 313.991 45.2143Z" fill="url(#paint4_linear_160_131)" stroke="black" stroke-width="2.091" stroke-miterlimit="10" stroke-linecap="round"/>
<path d="M76.1323 146.105C76.1323 145.555 74.7383 145.053 72.3615 144.662C69.2543 144.203 66.1204 143.947 62.9799 143.896C62.9352 140.769 62.6087 137.652 62.0041 134.584C61.4883 132.235 60.8122 130.813 60.0734 130.813C59.3346 130.813 58.6794 132.207 58.1497 134.584C57.5451 137.652 57.2185 140.769 57.1739 143.896C54.0333 143.947 50.8994 144.203 47.7923 144.662C45.4364 145.053 44.0215 145.555 44.0215 146.105C44.0215 146.656 45.4155 147.165 47.7923 147.555C50.8992 148.015 54.0333 148.269 57.1739 148.315C57.2186 151.444 57.5452 154.563 58.1497 157.634C58.6655 159.975 59.3346 161.397 60.0734 161.397C60.8122 161.397 61.4674 160.003 62.0041 157.634C62.6086 154.563 62.9352 151.444 62.9799 148.315C66.1198 148.278 69.2539 148.034 72.3615 147.583C74.7104 147.165 76.1323 146.656 76.1323 146.105Z" fill="url(#paint5_linear_160_131)" stroke="black" stroke-width="2.091" stroke-miterlimit="10" stroke-linecap="round"/>
<path d="M295.381 80.1619C292.642 80.7265 290.962 81.3189 289.805 82.462C288.648 83.6051 288.069 85.2849 287.505 88.038C287.495 88.1 287.463 88.1564 287.415 88.197C287.367 88.2377 287.306 88.26 287.243 88.26C287.181 88.26 287.12 88.2377 287.072 88.197C287.024 88.1564 286.992 88.1 286.982 88.038C286.417 85.2988 285.825 83.6121 284.682 82.462C283.539 81.312 281.894 80.7265 279.106 80.1619C279.044 80.1517 278.987 80.1199 278.947 80.072C278.906 80.0241 278.884 79.9633 278.884 79.9005C278.884 79.8377 278.906 79.7769 278.947 79.7291C278.987 79.6812 279.044 79.6493 279.106 79.6392C281.845 79.0746 283.532 78.4752 284.682 77.3391C285.832 76.2029 286.417 74.5511 286.982 71.7631C286.992 71.7011 287.024 71.6447 287.072 71.604C287.12 71.5633 287.181 71.541 287.243 71.541C287.306 71.541 287.367 71.5633 287.415 71.604C287.463 71.6447 287.495 71.7011 287.505 71.7631C288.069 74.5023 288.669 76.182 289.805 77.3391C290.941 78.4961 292.593 79.0746 295.381 79.6392C295.443 79.6493 295.499 79.6812 295.54 79.7291C295.58 79.7769 295.603 79.8377 295.603 79.9005C295.603 79.9633 295.58 80.0241 295.54 80.072C295.499 80.1199 295.443 80.1517 295.381 80.1619Z" fill="url(#paint6_linear_160_131)" stroke="black" stroke-width="2.091" stroke-miterlimit="10" stroke-linecap="round"/>
<path d="M313.991 76.6632C312.636 76.6647 311.323 76.1963 310.275 75.3378C309.227 74.4794 308.509 73.284 308.243 71.9554C307.978 70.6268 308.181 69.2473 308.819 68.052C309.457 66.8567 310.49 65.9196 311.741 65.4005C312.993 64.8813 314.385 64.8123 315.682 65.2051C316.979 65.5978 318.099 66.4282 318.852 67.5545C319.605 68.6808 319.944 70.0334 319.811 71.3817C319.679 72.73 319.083 73.9906 318.124 74.9486C317.582 75.4923 316.938 75.9237 316.229 76.2179C315.519 76.5122 314.759 76.6635 313.991 76.6632ZM313.991 68.1668C313.643 68.1659 313.298 68.2337 312.977 68.3665C312.655 68.4993 312.362 68.6944 312.116 68.9405C311.87 69.1866 311.675 69.479 311.542 69.8007C311.41 70.1225 311.342 70.4673 311.343 70.8154C311.341 71.1626 311.408 71.5067 311.541 71.8274C311.674 72.1482 311.869 72.4392 312.116 72.6833C312.362 72.9307 312.654 73.1271 312.976 73.261C313.298 73.395 313.643 73.464 313.991 73.464C314.693 73.4603 315.364 73.1801 315.86 72.6842C316.356 72.1883 316.636 71.5167 316.64 70.8154C316.64 70.4668 316.571 70.1217 316.437 69.7999C316.303 69.4781 316.107 69.186 315.859 68.9405C315.615 68.6936 315.324 68.498 315.003 68.3651C314.682 68.2323 314.338 68.1648 313.991 68.1668Z" fill="url(#paint7_linear_160_131)" stroke="black" stroke-width="2.091" stroke-miterlimit="10" stroke-linecap="round"/>
<path d="M82.1829 178.25C80.7778 178.253 79.4152 177.768 78.3275 176.879C77.2397 175.989 76.4942 174.75 76.218 173.373C75.9419 171.995 76.1521 170.564 76.813 169.324C77.4738 168.084 78.5444 167.112 79.842 166.573C81.1397 166.034 82.5841 165.962 83.9289 166.369C85.2738 166.776 86.4359 167.637 87.217 168.805C87.998 169.973 88.3498 171.375 88.2122 172.774C88.0746 174.172 87.4562 175.479 86.4625 176.473C85.9016 177.037 85.2348 177.484 84.5003 177.789C83.7658 178.094 82.9782 178.251 82.1829 178.25ZM82.1829 169.454C81.4558 169.456 80.7591 169.746 80.2456 170.261C79.7321 170.776 79.4437 171.473 79.4437 172.2C79.4412 172.653 79.5507 173.1 79.7626 173.5C79.9744 173.9 80.282 174.242 80.6579 174.495C81.0338 174.747 81.4664 174.903 81.917 174.948C82.3677 174.993 82.8225 174.926 83.2409 174.752C83.6594 174.579 84.0284 174.305 84.3152 173.954C84.6021 173.604 84.7977 173.188 84.8848 172.743C84.9719 172.299 84.9477 171.84 84.8143 171.407C84.681 170.974 84.4427 170.581 84.1206 170.263C83.8666 170.008 83.5645 169.806 83.2318 169.67C82.8991 169.534 82.5425 169.465 82.1829 169.468V169.454Z" fill="url(#paint8_linear_160_131)" stroke="black" stroke-width="2.091" stroke-miterlimit="10" stroke-linecap="round"/>
<path d="M288.516 476.817L279.044 496.444L269.564 516.079" stroke="black" stroke-width="2.091" stroke-miterlimit="10" stroke-linecap="round"/>
<path d="M87.1871 256.51C87.3613 255.206 87.6122 253.568 87.9956 251.673C88.3789 249.777 88.8947 247.623 89.5987 245.295C90.5767 241.854 91.7401 238.469 93.0837 235.154C94.6036 231.477 96.6154 228.023 99.0639 224.887C100.792 222.684 102.647 220.768 103.943 219.046C105.239 217.324 105.957 215.784 105.414 214.355C105.244 213.91 104.974 213.509 104.626 213.184C104.326 212.912 103.994 212.678 103.636 212.487C103.398 212.368 103.148 212.274 102.89 212.208C102.389 212.086 101.871 212.046 101.357 212.09C99.6112 212.321 97.9418 212.951 96.4781 213.93C95.6812 214.424 94.9217 214.976 94.2058 215.582C92.3897 217.203 90.724 218.985 89.2293 220.907C88.0723 222.35 87.3962 223.284 87.1383 223.13C87.0755 223.096 87.0616 223.019 87.0825 222.81C87.1034 222.601 87.1383 222.28 87.1871 221.736C87.1871 221.646 87.1871 221.736 87.1871 221.402C87.1871 221.067 87.1871 220.384 87.2986 218.739C87.3636 217.248 87.438 215.758 87.5216 214.272C87.5983 212.78 87.6959 211.288 87.8004 209.797C87.8841 208.654 87.9468 207.782 88.0374 207.072C88.1031 206.457 88.2532 205.854 88.4835 205.28C88.7838 204.595 89.1805 203.957 89.6614 203.384C90.171 202.803 90.7207 202.258 91.3063 201.753C93.1871 200.099 95.1884 198.587 97.2936 197.23C98.6876 196.275 99.4473 195.613 99.6076 194.442C99.69 193.723 99.5591 192.996 99.2312 192.351C98.9306 191.717 98.4632 191.178 97.8791 190.79C96.9172 190.19 95.7532 190.232 94.3941 190.643C92.8655 191.194 91.389 191.88 89.982 192.692C87.9449 193.72 86 194.921 84.1691 196.282C82.1602 197.819 80.5176 199.783 79.3598 202.032C78.7479 203.22 78.2664 204.47 77.9239 205.761C77.676 206.701 77.4989 207.659 77.3942 208.626C77.0085 208.153 76.5524 207.741 76.042 207.406C75.0578 206.732 73.881 206.397 72.6895 206.451C71.694 206.505 70.7312 206.826 69.9015 207.378C69.0603 207.937 68.3822 208.709 67.9359 209.616C67.4418 209.227 66.892 208.914 66.3049 208.689C65.2098 208.235 63.9964 208.152 62.8499 208.453C61.7034 208.754 60.6868 209.422 59.9553 210.354C59.1904 211.312 58.7227 212.473 58.6101 213.693C58.2086 213.69 57.8077 213.72 57.4112 213.784C56.8925 213.873 56.3883 214.032 55.9127 214.258C54.4352 215.059 53.2893 216.358 52.6786 217.924C52.0891 219.303 51.7063 220.761 51.5425 222.252C50.9012 227.526 50.2623 232.802 49.6257 238.081C48.9891 243.36 48.3502 248.636 47.709 253.91L67.4411 255.234L87.1871 256.51Z" fill="#F2B3C1" stroke="black" stroke-width="2.091" stroke-miterlimit="10" stroke-linecap="round"/>
<path d="M77.1299 222.105L77.2763 215.331L77.4157 208.549" fill="#F2B3C1"/>
<path d="M77.1299 222.105L77.2763 215.331L77.4157 208.549" stroke="black" stroke-width="2.091" stroke-miterlimit="10" stroke-linecap="round"/>
<path d="M257.179 220.245C257.179 219.597 257.116 218.907 257.04 218.154C256.963 217.401 256.858 216.663 256.712 215.868C256.46 214.486 256.103 213.125 255.646 211.798C255.268 210.699 254.826 209.624 254.321 208.577C254.941 208.295 255.594 208.096 256.266 207.985C257.178 207.817 258.119 207.924 258.97 208.292C260.566 209.024 261.584 210.794 261.912 212.739C262.098 213.693 262.084 214.675 261.872 215.624C261.66 216.573 261.253 217.468 260.678 218.252C260.177 218.842 259.554 219.318 258.852 219.646C258.321 219.914 257.759 220.115 257.179 220.245Z" fill="#F2B3C1" stroke="black" stroke-width="2.091" stroke-miterlimit="10" stroke-linecap="round"/>
<path d="M284.348 352.152C284.961 350.138 285.547 348.033 286.097 345.879C286.648 343.725 287.164 341.418 287.631 339.069C288.654 333.957 289.389 328.791 289.833 323.596C290.258 318.717 290.391 314.159 290.349 309.97" stroke="#070707" stroke-width="2.091" stroke-miterlimit="10" stroke-linecap="round"/>
<path d="M67.9567 209.567L67.664 216.098C67.5664 218.272 67.4618 220.447 67.3643 222.629" fill="#F2B3C1"/>
<path d="M67.9567 209.567L67.664 216.098C67.5664 218.272 67.4618 220.447 67.3643 222.629" stroke="black" stroke-width="2.091" stroke-miterlimit="10" stroke-linecap="round"/>
<path d="M58.6316 213.644C58.5619 215.184 58.4853 216.718 58.4086 218.258C58.3319 219.799 58.2552 221.332 58.1855 222.865" fill="#F2B3C1"/>
<path d="M58.6316 213.644C58.5619 215.184 58.4853 216.718 58.4086 218.258C58.3319 219.799 58.2552 221.332 58.1855 222.865" stroke="black" stroke-width="2.091" stroke-miterlimit="10" stroke-linecap="round"/>
<path d="M140.201 499.631V470.28V440.929" fill="#F6991A"/>
<path d="M140.201 499.631V470.28V440.929" stroke="#070707" stroke-width="2.091" stroke-miterlimit="10" stroke-linecap="round"/>
<path d="M112.704 605.964V633.287C112.571 635.91 113.029 638.53 114.042 640.954C115.694 644.578 119.326 647.749 127.23 645.965" stroke="black" stroke-width="2.091" stroke-miterlimit="10" stroke-linecap="round"/>
<path d="M167.67 605.964V633.287C167.803 635.91 167.348 638.529 166.339 640.954C164.68 644.578 161.049 647.749 153.145 645.965" stroke="black" stroke-width="2.091" stroke-miterlimit="10" stroke-linecap="round"/>
<path d="M115.527 661.724V665.223V668.722" stroke="black" stroke-width="2.091" stroke-miterlimit="10" stroke-linecap="round"/>
<path d="M108.027 661.724V665.223V668.722" stroke="black" stroke-width="2.091" stroke-miterlimit="10" stroke-linecap="round"/>
<path d="M170.842 661.724V665.223V668.722" stroke="black" stroke-width="2.091" stroke-miterlimit="10" stroke-linecap="round"/>
<path d="M163.334 661.724V665.223V668.722" stroke="black" stroke-width="2.091" stroke-miterlimit="10" stroke-linecap="round"/>
<path d="M234.185 299.188L249.24 311.901L264.295 324.621" fill="#FC762B"/>
<path d="M234.185 299.188L249.24 311.901L264.295 324.621" stroke="#070707" stroke-width="2.091" stroke-miterlimit="10" stroke-linecap="round"/>
<path d="M46.2949 262.246L65.9503 263.522L85.6057 264.797" fill="#FC762B"/>
<path d="M46.2949 262.246L65.9503 263.522L85.6057 264.797" stroke="#070707" stroke-width="2.091" stroke-miterlimit="10" stroke-linecap="round"/>
<defs>
<linearGradient id="paint0_linear_160_131" x1="183.478" y1="293.973" x2="183.478" y2="2" gradientUnits="userSpaceOnUse">
<stop offset="0.1" stop-color="#A4C2FF"/>
<stop offset="0.39" stop-color="#B5DEED"/>
<stop offset="0.65" stop-color="#C6FCDB"/>
</linearGradient>
<linearGradient id="paint1_linear_160_131" x1="183.479" y1="25.4609" x2="183.479" y2="293.973" gradientUnits="userSpaceOnUse">
<stop stop-color="#FEC2D9"/>
<stop offset="0.47" stop-color="#DBCAF4"/>
<stop offset="0.81" stop-color="#C6FCDB"/>
</linearGradient>
<linearGradient id="paint2_linear_160_131" x1="183.478" y1="53.1528" x2="183.478" y2="293.973" gradientUnits="userSpaceOnUse">
<stop offset="0.13" stop-color="#DBCAF4"/>
<stop offset="0.56" stop-color="#C6FCDB"/>
<stop offset="1" stop-color="#FEC2D9"/>
</linearGradient>
<linearGradient id="paint3_linear_160_131" x1="186.308" y1="669.545" x2="186.308" y2="293.974" gradientUnits="userSpaceOnUse">
<stop offset="0.02" stop-color="#A4C2FF"/>
<stop offset="0.88" stop-color="#FEC2D9"/>
</linearGradient>
<linearGradient id="paint4_linear_160_131" x1="298.476" y1="30.4379" x2="298.476" y2="59.9907" gradientUnits="userSpaceOnUse">
<stop offset="0.16" stop-color="#FEC2D9"/>
<stop offset="0.8" stop-color="#A4C2FF"/>
</linearGradient>
<linearGradient id="paint5_linear_160_131" x1="60.0734" y1="130.813" x2="60.0734" y2="161.397" gradientUnits="userSpaceOnUse">
<stop offset="0.16" stop-color="#FEC2D9"/>
<stop offset="0.8" stop-color="#A4C2FF"/>
</linearGradient>
<linearGradient id="paint6_linear_160_131" x1="287.261" y1="71.5679" x2="287.261" y2="88.2332" gradientUnits="userSpaceOnUse">
<stop offset="0.26" stop-color="#FEC2D9"/>
<stop offset="0.8" stop-color="#A4C2FF"/>
</linearGradient>
<linearGradient id="paint7_linear_160_131" x1="313.991" y1="64.9676" x2="313.991" y2="76.6632" gradientUnits="userSpaceOnUse">
<stop offset="0.16" stop-color="#FEC2D9"/>
<stop offset="0.8" stop-color="#A4C2FF"/>
</linearGradient>
<linearGradient id="paint8_linear_160_131" x1="82.1829" y1="166.157" x2="82.1829" y2="178.264" gradientUnits="userSpaceOnUse">
<stop offset="0.16" stop-color="#FEC2D9"/>
<stop offset="0.8" stop-color="#A4C2FF"/>
</linearGradient>
</defs>
</svg>
