<svg width="21" height="21" viewBox="0 0 21 21" fill="none" xmlns="http://www.w3.org/2000/svg">
<path d="M20.3689 10.9781C20.3698 10.2966 20.3117 9.6164 20.1955 8.94482H10.6997V12.796H16.1385C16.0272 13.4111 15.7916 13.9975 15.446 14.5197C15.1004 15.042 14.6518 15.4893 14.1274 15.8348V18.3346H17.3733C19.2739 16.5944 20.3689 14.021 20.3689 10.9781Z" fill="#4285F4"/>
<path d="M10.6997 20.75C13.4169 20.75 15.7049 19.8639 17.3733 18.3362L14.1274 15.8364C13.2239 16.4447 12.0604 16.7919 10.6997 16.7919C8.07328 16.7919 5.84408 15.0336 5.04693 12.6643H1.70312V15.2406C2.5412 16.8967 3.82629 18.2889 5.41494 19.2618C7.00358 20.2347 8.83324 20.7499 10.6997 20.75Z" fill="#34A853"/>
<path d="M5.04686 12.664C4.62543 11.4224 4.62543 10.0779 5.04686 8.83639V6.26013H1.70305C0.998032 7.65333 0.630859 9.19096 0.630859 10.7502C0.630859 12.3094 0.998032 13.847 1.70305 15.2402L5.04686 12.664Z" fill="#FBBC04"/>
<path d="M10.6997 4.70879C12.1356 4.68549 13.5231 5.22429 14.5623 6.20872L17.4362 3.35469C15.6139 1.65488 13.1996 0.721659 10.6997 0.750656C8.83324 0.750741 7.00358 1.26598 5.41494 2.23886C3.82629 3.21174 2.5412 4.60397 1.70312 6.2601L5.04693 8.83636C5.84408 6.46704 8.07328 4.70879 10.6997 4.70879Z" fill="#EA4335"/>
</svg>
